<mxfile host="app.diagrams.net" modified="2023-07-21T01:21:20.884Z" agent="Mozilla/5.0 (Windows NT 10.0; Win64; x64) AppleWebKit/537.36 (KHTML, like Gecko) Chrome/114.0.0.0 Safari/537.36" version="21.6.2" etag="iqK6xxORTHWTYbdakaG5" type="github">
  <diagram name="第 1 页" id="b4jQ-BNB-UIH-D7bnRL5">
    <mxGraphModel>
      <root>
        <mxCell id="0" />
        <mxCell id="1" parent="0" />
      </root>
    </mxGraphModel>
  </diagram>
</mxfile>
